<svg xmlns="http://www.w3.org/2000/svg" xmlns:xlink="http://www.w3.org/1999/xlink" width="1080" zoomAndPan="magnify" viewBox="0 0 810 809.999993" height="1080" preserveAspectRatio="xMidYMid meet" version="1.0"><defs><clipPath id="2910b13d17"><path d="M 163.808594 140 L 646.191406 140 L 646.191406 669.957031 L 163.808594 669.957031 Z M 163.808594 140 " clip-rule="nonzero"/></clipPath><clipPath id="cf676c36a2"><path d="M 430.582031 609.664062 L 430.582031 551.039062 C 432.757812 550.085938 434.894531 549.042969 436.980469 547.84375 L 512.722656 504.109375 C 515.609375 502.4375 518.324219 500.539062 520.875 498.484375 L 573.050781 527.414062 Z M 235.679688 526.679688 L 288.390625 497.878906 C 291.148438 500.171875 294.105469 502.28125 297.285156 504.117188 L 373.027344 547.851562 C 375.105469 549.050781 377.25 550.101562 379.425781 551.046875 L 379.425781 609.671875 Z M 379.425781 200.335938 L 379.425781 258.957031 C 377.25 259.910156 375.113281 260.953125 373.027344 262.152344 L 297.277344 305.886719 C 296.925781 306.085938 296.59375 306.320312 296.242188 306.53125 L 247.964844 276.222656 Z M 575.851562 284.210938 C 577.28125 285.035156 578.640625 285.949219 579.9375 286.941406 L 524.894531 315.050781 C 521.25 311.570312 517.191406 308.472656 512.722656 305.894531 L 436.972656 262.160156 C 434.894531 260.960938 432.75 259.910156 430.574219 258.964844 L 430.574219 200.335938 Z M 214.964844 479.699219 L 214.964844 317.433594 C 214.964844 316.933594 214.996094 316.4375 215.015625 315.941406 L 266.640625 348.34375 C 265.769531 352.550781 265.3125 356.878906 265.3125 361.265625 L 265.3125 448.730469 C 265.3125 449.871094 265.363281 450.996094 265.425781 452.128906 Z M 544.539062 453.109375 C 544.636719 451.664062 544.6875 450.199219 544.6875 448.730469 L 544.6875 362.375 L 595.027344 336.664062 L 595.027344 481.109375 Z M 601.433594 239.898438 L 449.761719 152.335938 C 422.152344 136.394531 387.847656 136.394531 360.234375 152.335938 L 208.574219 239.898438 C 180.960938 255.84375 163.808594 285.554688 163.808594 317.433594 L 163.808594 492.566406 C 163.808594 524.449219 180.960938 554.15625 208.574219 570.101562 L 360.238281 657.664062 C 374.046875 665.636719 389.527344 669.621094 405.007812 669.621094 C 420.488281 669.621094 435.96875 665.636719 449.765625 657.664062 L 601.433594 570.09375 C 629.039062 554.15625 646.191406 524.441406 646.191406 492.558594 L 646.191406 317.433594 C 646.191406 285.554688 629.039062 255.84375 601.433594 239.898438 " clip-rule="nonzero"/></clipPath></defs><rect x="-81" width="972" fill="#ffffff" y="-80.999999" height="971.999992" fill-opacity="1"/><g clip-path="url(#2910b13d17)"><g clip-path="url(#cf676c36a2)"><path fill="#02472a" d="M 163.808594 140.382812 L 646.191406 140.382812 L 646.191406 669.957031 L 163.808594 669.957031 Z M 163.808594 140.382812 " fill-opacity="1" fill-rule="nonzero"/></g></g></svg>